<svg xmlns="http://www.w3.org/2000/svg" viewBox="0 0 500 500"><g id="freepik--background-simple--inject-10"><path d="M412.85,61.32C396.11,41,375.81,24.66,349.75,18,316.63,9.52,40.86,126.61,15.44,178.22S241.91,491,284.27,488.66s191-208,202.6-255c8.28-33.7-11.91-67.19-27.1-95.82C446.6,113.05,432.07,84.61,412.85,61.32Z" style="fill:#38BDF8"></path><path d="M412.85,61.32C396.11,41,375.81,24.66,349.75,18,316.63,9.52,40.86,126.61,15.44,178.22S241.91,491,284.27,488.66s191-208,202.6-255c8.28-33.7-11.91-67.19-27.1-95.82C446.6,113.05,432.07,84.61,412.85,61.32Z" style="fill:#fff;opacity:0.7000000000000001"></path></g><g id="freepik--Plants--inject-10"><path d="M351.68,356.48c.79,2.79,5,7.73,5,7.73s2.41-3.77,2.53-4c1.41-3,2.37-9.59-.33-12.12a4.38,4.38,0,0,0-6.47.75C350.83,350.89,351,354.1,351.68,356.48Z" style="fill:#263238"></path><path d="M338.53,370.11c1.43,2.39,6.39,5.82,6.79,6.09a77.61,77.61,0,0,0-5.31,8.87c-.93,1.79-1.81,3.61-2.66,5.46.26-.9.49-1.71.52-1.83.56-3.25-.25-9.88-3.52-11.6a4.39,4.39,0,0,0-6.05,2.43c-1,2.42.05,5.47,1.32,7.59s5.46,5.16,6.58,5.94c-.32.71-.65,1.41-1,2.12-1.53,3.42-3,6.83-4.62,10.13-.56,1.17-1.15,2.29-1.74,3.42.23-.8.43-1.47.44-1.58.57-3.25-.24-9.88-3.51-11.6a4.39,4.39,0,0,0-6.05,2.43c-1,2.42.05,5.47,1.32,7.59s5.05,4.86,6.38,5.79c-.64,1.14-1.28,2.28-1.95,3.35-.47.73-.87,1.46-1.39,2.16L322.64,419c-1,1.3-2,2.64-3,3.88-.68.86-1.35,1.68-2,2.5.57-1.16,1.63-3.44,1.7-3.64,1.06-3.13,1.25-9.8-1.72-12a4.38,4.38,0,0,0-6.34,1.49c-1.34,2.24-.79,5.41.15,7.7,1,2.51,5.23,6.51,5.75,7-1.11,1.35-2.21,2.66-3.26,3.88-.78.9-1.53,1.76-2.26,2.58l1.45,1.78c.8-.93,1.63-1.91,2.48-2.95,1.14-1.37,2.33-2.86,3.53-4.4a47.73,47.73,0,0,0,5.05,2.42c-.4,2.76.81,8,1,8.72-1.67.52-3.31,1-4.86,1.43-.82.24-1.6.45-2.37.65l1.54,1.89,1.45-.43c1.7-.52,3.51-1.1,5.37-1.72.32.63,3,5.77,5.17,7.45,1.94,1.52,4.84,2.92,7.37,2.25a4.38,4.38,0,0,0,3.16-5.7c-1.31-3.46-7.78-5.09-11.08-4.93-.19,0-2.29.35-3.61.59.75-.26,1.49-.5,2.26-.78,1.54-.53,3.06-1.1,4.69-1.72l2.36-1c.8-.31,1.6-.74,2.4-1.11,1.86-.89,3.69-1.89,5.52-2.94.47,1.34,2.2,6.09,3.9,7.9s4.34,3.62,6.94,3.34a4.39,4.39,0,0,0,4-5.16c-.77-3.62-6.92-6.21-10.21-6.55-.2,0-2.59,0-3.9,0,1.09-.64,2.19-1.27,3.27-1.95,3.13-2,6.24-4.06,9.35-6.13l2.86-1.88c.16.48,2.1,6.17,4,8.19,1.69,1.8,4.35,3.62,6.94,3.34a4.37,4.37,0,0,0,4-5.15c-.76-3.62-6.91-6.21-10.2-6.55-.25,0-3.68,0-4.55.06,2.1-1.38,4.21-2.73,6.34-4a76.27,76.27,0,0,1,8.92-4.52c.08.22,2.07,6.17,4,8.24,1.69,1.8,4.34,3.62,6.94,3.34a4.39,4.39,0,0,0,4-5.16c-.77-3.62-6.92-6.21-10.2-6.55-.26,0-4,0-4.63.07l.54-.25a56.61,56.61,0,0,1,9.61-2.84c1.81-.39,3.56-.66,5.27-.89.25,1.15,1.49,6.37,3,8.43s3.92,4.07,6.53,4.08a4.38,4.38,0,0,0,4.53-4.69c-.36-3.68-6.19-6.93-9.42-7.63-.18,0-2-.23-3.34-.35.78-.09,1.57-.19,2.31-.26,2.79-.28,5.35-.36,7.63-.41,1.29,0,2.46,0,3.56,0,.83,1,4.27,4.94,6.55,6s5.36,1.81,7.68.61a4.38,4.38,0,0,0,1.86-6.24c-2-3.11-8.69-3.31-11.88-2.44-.28.08-4.45,1.75-4.41,1.8l.05.06c-1.05,0-2.18-.07-3.41-.08-2.28,0-4.86,0-7.66.24a78.19,78.19,0,0,0-9,1.12,57.11,57.11,0,0,0-9.79,2.68l-.11.05c.85-.68,3.17-2.63,3.33-2.8,2.27-2.4,5.25-8.37,3.47-11.62a4.38,4.38,0,0,0-6.39-1.31c-2.15,1.48-3,4.59-3.09,7.06-.12,2.78,2.13,8.38,2.31,8.82a79.27,79.27,0,0,0-9.32,4.47c-1.76,1-3.5,2-5.23,3.09.72-.61,1.35-1.15,1.43-1.24,2.28-2.4,5.25-8.37,3.47-11.62a4.38,4.38,0,0,0-6.38-1.31c-2.16,1.49-3,4.6-3.09,7.06s1.71,7.31,2.21,8.58l-2,1.24c-3.16,2-6.3,4-9.44,5.9-1.11.66-2.22,1.28-3.34,1.89.64-.53,1.17-1,1.25-1.07,2.27-2.4,5.24-8.37,3.46-11.62a4.38,4.38,0,0,0-6.38-1.31c-2.15,1.48-3,4.6-3.09,7.06s1.54,6.85,2.12,8.35c-1.15.6-2.31,1.2-3.46,1.73-.8.34-1.54.72-2.35,1l-2.38.93c-1.54.54-3.12,1.1-4.63,1.59-1.05.34-2.05.65-3.07,1,1.11-.64,3.26-2,3.43-2.09a16.9,16.9,0,0,0,5-7,5.64,5.64,0,0,0,.72-.66,4.38,4.38,0,0,0-.51-6.5c-3-2.17-9.3,0-12,2-.16.11-1.72,1.56-2.7,2.48.49-.63,1-1.24,1.47-1.89,1-1.29,1.94-2.61,3-4l1.43-2.12c.49-.7.92-1.5,1.39-2.25,1.05-1.77,2-3.62,3-5.5,1.13.86,5.19,3.87,7.6,4.44s5.62.62,7.64-1.05a4.38,4.38,0,0,0,.48-6.5c-2.64-2.59-9.2-1.36-12.12.17-.19.09-2.17,1.43-3.24,2.18.56-1.14,1.12-2.27,1.65-3.43,1.53-3.37,3-6.83,4.42-10.27.44-1.05.9-2.1,1.35-3.15.4.32,5.15,4,7.86,4.63,2.4.57,5.62.62,7.63-1a4.38,4.38,0,0,0,.48-6.5c-2.64-2.6-9.19-1.37-12.12.16-.22.12-3.07,2-3.77,2.56,1-2.3,2-4.6,3.1-6.81a76.14,76.14,0,0,1,4.94-8.7c.19.15,5.13,4,7.9,4.66,2.4.57,5.62.62,7.63-1.05a4.37,4.37,0,0,0,.49-6.49c-2.64-2.6-9.2-1.37-12.13.16-.23.12-3.29,2.19-3.81,2.6.1-.16.2-.34.31-.49a56,56,0,0,1,6.44-7.68c1.3-1.32,2.61-2.51,3.91-3.64.84.81,4.76,4.48,7.18,5.35s5.52,1.23,7.7-.2a4.38,4.38,0,0,0,1.2-6.41c-2.34-2.87-9-2.37-12.07-1.17-.17.07-1.8.92-3,1.55.6-.5,1.2-1,1.78-1.5,2.17-1.76,4.27-3.24,6.14-4.54,1.07-.73,2.05-1.37,3-2,1.25.37,6.29,1.77,8.8,1.43s5.46-1.45,6.74-3.73a4.39,4.39,0,0,0-1.89-6.24c-3.4-1.47-9.07,2.05-11.25,4.53-.19.21-2.75,3.91-2.69,3.93l.08,0c-.9.55-1.86,1.14-2.9,1.82-1.9,1.26-4,2.7-6.25,4.42a78.16,78.16,0,0,0-6.89,5.91,57,57,0,0,0-6.7,7.63l-.06.1c.34-1,1.19-3.93,1.23-4.17.57-3.25-.24-9.87-3.51-11.6a4.39,4.39,0,0,0-6.05,2.43C336.23,364.94,337.26,368,338.53,370.11Z" style="fill:#263238"></path><path d="M392.12,408.28c0,.07,4.09-1.82,4.33-2,2.82-1.72,7.27-6.7,6.41-10.3a4.37,4.37,0,0,0-5.81-2.94c-2.47.86-4.08,3.64-4.84,6C391.32,401.83,392.12,408.27,392.12,408.28Z" style="fill:#263238"></path><path d="M83.5,354.42c2.55-1.38,6.44-6.59,6.44-6.6s-4.22-1.52-4.5-1.58c-3.23-.71-9.89-.19-11.76,3a4.39,4.39,0,0,0,2.16,6.16C78.22,356.49,81.32,355.6,83.5,354.42Z" style="fill:#263238"></path><path d="M99.73,364.25c2-1.92,4.26-7.53,4.44-8a76,76,0,0,0,9.84,3.22c1.95.51,3.93,1,5.92,1.39-.94-.06-1.78-.11-1.9-.1-3.3.17-9.59,2.43-10.55,6a4.39,4.39,0,0,0,3.71,5.37c2.59.42,5.34-1.26,7.12-3s3.83-6.48,4.35-7.74l2.29.47c3.67.74,7.34,1.45,10.92,2.27,1.26.29,2.49.62,3.72.94L138,365c-3.31.17-9.6,2.43-10.56,6a4.39,4.39,0,0,0,3.72,5.37c2.58.42,5.33-1.26,7.12-3s3.62-6,4.24-7.51c1.26.37,2.51.73,3.71,1.15.81.3,1.61.54,2.41.88l2.37,1c1.48.68,3,1.36,4.44,2.06,1,.48,1.94.95,2.89,1.42-1.25-.3-3.72-.84-3.93-.86-3.29-.33-9.85.95-11.34,4.34a4.39,4.39,0,0,0,2.86,5.87c2.49.81,5.46-.44,7.49-1.85,2.23-1.57,5.2-6.55,5.57-7.18,1.57.79,3.09,1.57,4.51,2.33,1.05.56,2.06,1.11,3,1.64l1.42-1.82c-1.08-.57-2.23-1.16-3.43-1.77-1.59-.81-3.31-1.64-5.08-2.47a47.38,47.38,0,0,0,1.25-5.46c2.78-.23,7.67-2.58,8.3-2.89.87,1.52,1.71,3,2.47,4.43.41.75.79,1.47,1.17,2.18l1.5-1.93-.75-1.32c-.88-1.55-1.85-3.19-2.87-4.86.55-.46,5-4.24,6.14-6.71,1-2.23,1.77-5.37.56-7.69a4.38,4.38,0,0,0-6.27-1.82c-3.09,2-3.25,8.72-2.36,11.91.06.19.85,2.16,1.38,3.4-.42-.68-.82-1.35-1.26-2-.86-1.39-1.76-2.74-2.72-4.2l-1.48-2.09c-.48-.71-1.08-1.39-1.62-2.1-1.28-1.61-2.67-3.18-4.09-4.73,1.21-.76,5.46-3.5,6.85-5.56s2.57-5,1.72-7.52a4.38,4.38,0,0,0-5.92-2.75c-3.36,1.55-4.53,8.13-4.14,11.41,0,.21.58,2.53.9,3.81-.86-.93-1.72-1.86-2.63-2.77-2.61-2.62-5.34-5.19-8-7.77L145,331.21c.43-.26,5.56-3.41,7.11-5.72,1.39-2.05,2.58-5.05,1.73-7.52a4.39,4.39,0,0,0-5.92-2.75c-3.37,1.55-4.54,8.13-4.14,11.41,0,.25.82,3.6,1.07,4.44-1.81-1.75-3.6-3.51-5.29-5.32a77.35,77.35,0,0,1-6.4-7.71c.2-.12,5.57-3.39,7.16-5.75,1.38-2.05,2.57-5,1.73-7.52a4.39,4.39,0,0,0-5.92-2.75c-3.37,1.55-4.54,8.13-4.14,11.41,0,.26.89,3.86,1.09,4.5-.11-.16-.25-.31-.36-.46a57,57,0,0,1-4.91-8.76c-.78-1.68-1.43-3.33-2-4.95,1.06-.51,5.89-2.87,7.55-4.84s3.12-4.73,2.54-7.28a4.39,4.39,0,0,0-5.58-3.39c-3.51,1.17-5.4,7.59-5.36,10.89,0,.18.22,2,.4,3.34-.26-.73-.54-1.49-.78-2.2-.88-2.66-1.53-5.14-2.08-7.35-.31-1.26-.56-2.41-.78-3.48.78-1,3.88-5.27,4.45-7.74s.58-5.63-1.11-7.64a4.38,4.38,0,0,0-6.51-.43c-2.58,2.66-1.3,9.22.25,12.14.14.25,2.69,4,2.73,3.91l.05-.06c.2,1,.42,2.14.68,3.35.51,2.23,1.1,4.74,1.94,7.42a76.58,76.58,0,0,0,3.09,8.55,56.67,56.67,0,0,0,4.78,9,.86.86,0,0,1,.07.1c-.84-.69-3.27-2.52-3.47-2.64-2.85-1.68-9.34-3.27-12.11-.81a4.39,4.39,0,0,0,.13,6.53c1.93,1.77,5.15,1.89,7.58,1.45,2.74-.5,7.71-3.94,8.11-4.21a78.1,78.1,0,0,0,6.43,8.12c1.34,1.5,2.74,3,4.17,4.42-.75-.57-1.42-1.07-1.53-1.13-2.84-1.69-9.34-3.27-12.11-.81a4.38,4.38,0,0,0,.13,6.52c1.93,1.78,5.15,1.9,7.58,1.46s6.77-3.3,7.89-4.07l1.65,1.66c2.66,2.64,5.32,5.27,7.86,7.92.89.93,1.73,1.89,2.58,2.84-.66-.5-1.23-.92-1.32-1-2.85-1.68-9.34-3.27-12.11-.81a4.39,4.39,0,0,0,.13,6.53c1.92,1.77,5.15,1.89,7.58,1.45s6.34-3,7.69-3.93c.84,1,1.68,2,2.45,3,.51.7,1.05,1.34,1.52,2.07l1.44,2.12c.86,1.38,1.76,2.8,2.57,4.16.57,1,1.09,1.87,1.62,2.78-.88-.94-2.63-2.74-2.8-2.88a17.15,17.15,0,0,0-7.93-3.3,6.3,6.3,0,0,0-.8-.55,4.4,4.4,0,0,0-6.24,1.94c-1.45,3.41,2.1,9.07,4.6,11.24.15.12,1.91,1.33,3,2.08-.73-.34-1.43-.68-2.18-1-1.48-.68-3-1.32-4.58-2l-2.39-.92c-.79-.33-1.67-.57-2.51-.86-2-.63-4-1.18-6-1.69.59-1.3,2.62-5.93,2.64-8.41s-.63-5.63-2.71-7.23a4.38,4.38,0,0,0-6.45,1c-1.95,3.15.7,9.29,2.84,11.81.14.16,1.88,1.79,2.85,2.67-1.23-.29-2.46-.59-3.72-.85-3.62-.74-7.32-1.38-11-2l-3.37-.62c.21-.46,2.75-5.92,2.77-8.7,0-2.47-.63-5.62-2.71-7.22a4.38,4.38,0,0,0-6.45,1c-2,3.15.7,9.28,2.84,11.8.17.19,2.67,2.54,3.34,3.11-2.47-.46-4.94-.94-7.34-1.52a75.3,75.3,0,0,1-9.59-2.9c.1-.21,2.77-5.89,2.8-8.74,0-2.47-.64-5.63-2.71-7.22a4.38,4.38,0,0,0-6.46,1c-2,3.15.71,9.29,2.85,11.81.17.2,2.87,2.73,3.39,3.15l-.56-.19a56.74,56.74,0,0,1-8.93-4.6c-1.57-1-3-2-4.42-3,.61-1,3.33-5.65,3.63-8.21s0-5.66-1.9-7.47a4.38,4.38,0,0,0-6.52.25c-2.29,2.92-.32,9.3,1.53,12.05.1.15,1.3,1.55,2.18,2.56-.62-.47-1.27-1-1.86-1.41-2.2-1.73-4.12-3.45-5.8-5-1-.88-1.79-1.7-2.57-2.47.08-1.3.34-6.54-.56-8.91s-2.62-5-5.13-5.76A4.38,4.38,0,0,0,68,326.61c-.69,3.64,4,8.4,6.91,10,.25.14,4.43,1.82,4.43,1.76v-.08c.73.76,1.53,1.56,2.42,2.42,1.65,1.58,3.53,3.34,5.7,5.13a76.52,76.52,0,0,0,7.3,5.42,57.07,57.07,0,0,0,8.94,4.85l.11,0c-1.08-.1-4.11-.29-4.34-.28-3.31.16-9.6,2.43-10.56,6a4.39,4.39,0,0,0,3.72,5.36C95.19,367.64,97.94,366,99.73,364.25Z" style="fill:#263238"></path><path d="M125.13,303.45c.07,0-2.68-3.59-2.88-3.8-2.3-2.37-8.14-5.61-11.47-4a4.39,4.39,0,0,0-1.59,6.33c1.39,2.22,4.46,3.18,6.92,3.4C119,305.66,125.13,303.45,125.13,303.45Z" style="fill:#263238"></path></g><g id="freepik--Character--inject-10"><path d="M187.79,334.43s-7.48-7.73-13.92-.26-7,28.61-7,30.16-12.12,17-13.92,31.7,33,64.18,69.34,82.23,70.1,1,76.29.51,18.56-.51,31.7-13.66S345,408.66,327.74,386s-36.08-29.38-52.06-27.84S187.79,334.43,187.79,334.43Z" style="fill:#38BDF8;stroke:#263238;stroke-miterlimit:10"></path><path d="M312.54,422.72c-2.16,2.37-5.69,4.47-11.09,5.53C288.31,430.83,264.6,421,264.6,421" style="fill:none;stroke:#263238;stroke-miterlimit:10"></path><path d="M314.86,413.05a8.13,8.13,0,0,1-.17,6.32" style="fill:none;stroke:#263238;stroke-miterlimit:10"></path><path d="M264.6,421s-.26-21.14,2.06-27.33c0,0,5.15,6.71,3.61,14.44A32.91,32.91,0,0,1,264.6,421Z" style="fill:#263238;stroke:#263238;stroke-miterlimit:10"></path><path d="M258.28,472.3s16.58,2,30.84-2.34" style="fill:none;stroke:#263238;stroke-miterlimit:10"></path><path d="M273.69,466.76a86.58,86.58,0,0,1-24.45-.29" style="fill:none;stroke:#263238;stroke-miterlimit:10"></path><path d="M167.75,367.81s-.87,7.56,9.9,23.57" style="fill:none;stroke:#263238;stroke-miterlimit:10"></path><path d="M173.5,370.34c-.34,6-.92,11.57-.92,11.57s-5.38,10.76-8.84,16.14-4.61,10-4.61,11.15" style="fill:none;stroke:#263238;stroke-miterlimit:10"></path><path d="M183,356.92s-9.22-1.54-9.22,6.15" style="fill:none;stroke:#263238;stroke-miterlimit:10"></path><path d="M174.27,412.52c-2.37,4.53-4.53,8.82-5.15,10.52" style="fill:none;stroke:#263238;stroke-miterlimit:10"></path><path d="M191.41,377.91c-3.41,2.54-7.08,5.83-7.68,8.61-1.15,5.38-1.92,11.92-1.92,11.92s-2.41,4.41-5.15,9.55" style="fill:none;stroke:#263238;stroke-miterlimit:10"></path><path d="M197.57,373.83s-1,.6-2.54,1.57" style="fill:none;stroke:#263238;stroke-miterlimit:10"></path><path d="M202.92,397.78a14.5,14.5,0,0,0-2.27,5.65c-1.54,8.84-.77,13.84-5,21.53s-9.61,12.68-8.46,18.45" style="fill:none;stroke:#263238;stroke-miterlimit:10"></path><path d="M211,391.13a19.57,19.57,0,0,0-5.38,3.5" style="fill:none;stroke:#263238;stroke-miterlimit:10"></path><path d="M208.42,454.72c-1.53,2.71-2.74,5.94-.47,11" style="fill:none;stroke:#263238;stroke-miterlimit:10"></path><path d="M229.47,408.05s-8.84,4.61-10.76,12.68-6.53,26.14-8.07,30" style="fill:none;stroke:#263238;stroke-miterlimit:10"></path><path d="M245.24,421.11s-8.46,11.15-9.23,19.61" style="fill:none;stroke:#263238;stroke-miterlimit:10"></path><path d="M296.76,420.33c-3.79,4.87-6.17,6.17-6.17,6.17" style="fill:none;stroke:#263238;stroke-miterlimit:10"></path><path d="M324,386.13s-12.69-1.15-15.38,4.62S307.12,404.2,301,414.2c-.55.89-1.09,1.73-1.61,2.51" style="fill:none;stroke:#263238;stroke-miterlimit:10"></path><path d="M307.51,374.6s-3.46-3.07-8.46,6.15" style="fill:none;stroke:#263238;stroke-miterlimit:10"></path><path d="M327.5,405.35c5.76,2.31,11.53,12.31,11.91,23.45" style="fill:none;stroke:#263238;stroke-miterlimit:10"></path><path d="M316.73,408.05a12.46,12.46,0,0,1,6.65-3.25" style="fill:none;stroke:#263238;stroke-miterlimit:10"></path><path d="M264.6,421c-10.06-1-19.78-5.52-42.89-27.32s-41.4-41.41-39.23-46.2,5.24-16.57,1.31-24.85S158.51,303.93,145,280.39s-13.51-52.3-1.74-92.84,31.38-39.67,31.38-39.67,14.38-27,62.77-32.25,85.43,26.15,92.4,34,21.8,21.79,21.8,30.51v8.72s9.59,29.2,9.15,44.89-8.28,32.69-6.54,41.41,16.57,25.28,15.69,33.13-17.87,7.41-17,12.2-7.52,24.93-11.52,35.67-9.82,15-19.64,16.58-33.16-9.21-33.16-9.21-9.82,4.91-17.8,20S264.6,421,264.6,421Z" style="fill:#fff;stroke:#263238;stroke-miterlimit:10"></path><ellipse cx="336.8" cy="277.42" rx="3.68" ry="9.36" style="fill:#263238"></ellipse><path d="M353.68,258.54a12.54,12.54,0,0,0-13.81-4.6C330.66,256.4,327,265.6,327,265.6s8.9-7.36,13.5-7.67S351.23,262.84,353.68,258.54Z" style="fill:#263238;stroke:#263238;stroke-miterlimit:10"></path><path d="M342.94,332.83s-12,1.85-16-13.81" style="fill:none;stroke:#263238;stroke-miterlimit:10"></path><path d="M351.61,188.86v-8.72c0-8.72-14.82-22.67-21.8-30.51s-44-39.23-92.4-34-62.77,32.25-62.77,32.25-31.27,19.41-43,59.94c-3.78,13,1.19,14.28,1.87,20.71,2.39,22.87,2.36,35.89,11.53,51.86,13.51,23.54,34.87,34,38.79,42.28a18,18,0,0,1,.93,2.48c1.22,1.75,4.05,3.72,10.63,3.37,11.48-.6,14.16-9.76,10.27-30.2s34.43-25.37,40.47-24.16,15.11-3.63,17.52-10.88,1.82-19.93,7.25-23.56,26-12.68,36.85-19.33,13.9-27.79,22.35-32.62S351.61,188.86,351.61,188.86Z" style="fill:#263238;stroke:#263238;stroke-miterlimit:10"></path><path d="M288.66,190.77c2.13,2.88,4.23,6,6.28,9.36" style="fill:none;stroke:#7a7a7a;stroke-miterlimit:10"></path><path d="M231.75,155.07s27.26,0,52.47,30.05" style="fill:none;stroke:#7a7a7a;stroke-miterlimit:10"></path><path d="M247.14,131.45s33-4.95,64.83,26.92" style="fill:none;stroke:#7a7a7a;stroke-miterlimit:10"></path><path d="M170.46,284.62c10.12,16.23,20.63,17.16,20.63,17.16" style="fill:none;stroke:#7a7a7a;stroke-miterlimit:10"></path><path d="M160.34,205.6c-3.46,13.57-6.35,34.88.53,57.17a102,102,0,0,0,6.87,17.08" style="fill:none;stroke:#7a7a7a;stroke-miterlimit:10"></path><path d="M165.27,190.79a74.45,74.45,0,0,0-2.86,7.63" style="fill:none;stroke:#7a7a7a;stroke-miterlimit:10"></path><path d="M162.29,286.06a98.23,98.23,0,0,0,11.77,9.67" style="fill:none;stroke:#7a7a7a;stroke-miterlimit:10"></path><path d="M147.75,210.43c-4.87,12.77-9.13,28.71-6.66,41.35,1.9,9.69,7.18,18.41,13,25.48" style="fill:none;stroke:#7a7a7a;stroke-miterlimit:10"></path><path d="M158.12,188s-3.45,6.05-7.31,14.92" style="fill:none;stroke:#7a7a7a;stroke-miterlimit:10"></path><path d="M218.66,240A95.22,95.22,0,0,0,238.34,254" style="fill:none;stroke:#7a7a7a;stroke-miterlimit:10"></path><path d="M196.59,174.85s-8,32.89,17.76,60.85" style="fill:none;stroke:#7a7a7a;stroke-miterlimit:10"></path><path d="M185.6,221s2.13,37.09,40.07,39.68" style="fill:none;stroke:#7a7a7a;stroke-miterlimit:10"></path><path d="M209.24,153.94s-5.43,6-19.33,19.33-7.25,20.54-5.43,26-.61,11.48-6.65,13.29l-6,1.81s9.06,0,6-9.67-8.46-20.54-3-26.58,13.29-20.54,13.89-22.95" style="fill:#263238;stroke:#7a7a7a;stroke-miterlimit:10"></path><path d="M207.43,303.76s-3,3.62-1.81,16.91-4.83,34.44-15.1,41.68-32.62-7.24-44.1,10.27,1.21,24.77,1.21,24.77S128.9,369.6,147,361.75s27.43-6.72,35.46-14.23,11.66-25,9.85-30.47" style="fill:#263238;stroke:#263238;stroke-miterlimit:10"></path><path d="M310.13,189.58s3,11.48-9.06,25.37-51.35,14.5-51.35,47.12,8.46,50.75,4.23,62.83S241.26,334,238.85,346s9.06,21.15,9.06,21.15-7.86-15.71,0-24.77,18.12-23,18.12-27.79-6.65-32.62-2.42-51.35,29-18.73,42.29-30.2,19.94-28.4,20.54-38.06" style="fill:#263238;stroke:#263238;stroke-miterlimit:10"></path><path d="M322.81,176.29c-4.22,7.25-3.62,34.44-3.62,45.31s-30.81,30.2-39.27,44.1-2.41,66.45,1.82,82.16-10.27,19.93-21.15,38.05,15.71,33.23,15.71,33.23-16.31-15.71-9.64-25.43,27.76-32.56,27.76-44-9.06-15.71-3.62-45.31,22.95-23.56,47.12-41.68,39.26-53.77,36.85-72.49-4.23-10.88-10.88-12.09-20.54-8.45-20.54-8.45l-3.64-.49m11.5,44c-2.42,13.29-19.94,39.27-36.85,49.54S289,285,289,285a35.72,35.72,0,0,1,7.85-18.12c7.25-9.07,21.75-13.9,29.6-26s5.44-19.33,6.64-33.23S347,189.58,347,189.58l4.63-.72A75.1,75.1,0,0,1,351.21,213.14Z" style="fill:#263238;stroke:#263238;stroke-miterlimit:10"></path><path d="M121.65,108s-8.64.81-15.79,14.46c-6.2,11.84,1.29,25.41,1.29,25.41s-.6-14.5,4.23-18.73a44.77,44.77,0,0,1,8.46-6s-3.63,9.06-3,14.5c0,0,4.83-12.08,9.06-12.08" style="fill:#263238;stroke:#263238;stroke-miterlimit:10"></path><path d="M199,158s30.72,4.15,39-20.77-10-46.5-10-46.5,7.48-18.27-13.28-31.56-49-4.15-50.66,4.15,4.15,19.1,4.15,19.1-29.9-10.79-41.52,5-10,28.23-5.82,39.86,11.63,24.08,11.63,24.08S121.75,163,144.18,177.1,199,158,199,158Z" style="fill:#263238;stroke:#263238;stroke-miterlimit:10"></path><path d="M131,134.65c-3-12.41-4.48-32.25,8.82-49" style="fill:none;stroke:#7a7a7a;stroke-miterlimit:10"></path><path d="M134.94,146.69a59.76,59.76,0,0,1-2.77-7.55" style="fill:none;stroke:#7a7a7a;stroke-miterlimit:10"></path><path d="M193.29,96.48a42.84,42.84,0,0,1,11.12,21.82c4.23,24.16-4.23,35-4.23,35" style="fill:none;stroke:#7a7a7a;stroke-miterlimit:10"></path><path d="M222.53,88.09C203.2,73,176,83.86,176,83.86a54.08,54.08,0,0,1,11.18,7" style="fill:none;stroke:#7a7a7a;stroke-miterlimit:10"></path><path d="M149.66,100.41c-.69,1.59-1.38,3.32-2,5.2-8.46,24.17-3,35.64-3,35.64" style="fill:none;stroke:#7a7a7a;stroke-miterlimit:10"></path><path d="M168.26,82.42s-7.88-.63-15.37,11.71" style="fill:none;stroke:#7a7a7a;stroke-miterlimit:10"></path><path d="M201.69,63.35c10.2,5.36,18.43,15.08,18.43,15.08" style="fill:none;stroke:#7a7a7a;stroke-miterlimit:10"></path><path d="M176,83.86s-8.46-16.91,7.85-23a17.24,17.24,0,0,1,9-.71" style="fill:none;stroke:#7a7a7a;stroke-miterlimit:10"></path><path d="M188.7,123.18c-1.36-12.34-6.29-22.15-10.87-25.42" style="fill:none;stroke:#7a7a7a;stroke-miterlimit:10"></path><path d="M156.69,179.92s11.48,3,25.37-22.36A56.89,56.89,0,0,0,188.74,136" style="fill:none;stroke:#7a7a7a;stroke-miterlimit:10"></path><path d="M245.93,280s-5.52-16-20.26-19.34-21.79,6.45-23.94,17.19,4.3,28.86,8.9,33.46,14.74,8.29,14.74,8.29,4.91,5.53,10.13,4.61,8.59-6.45,9.2-7.68" style="fill:#fff;stroke:#263238;stroke-miterlimit:10"></path></g></svg>
